<svg width="21" height="23" viewBox="0 0 21 23" fill="none" xmlns="http://www.w3.org/2000/svg">
<path fill-rule="evenodd" clip-rule="evenodd" d="M3.71513 3.01617L3.51817 5.46617C3.47877 5.93617 3.84315 6.32617 4.30601 6.32617H19.3833C19.7969 6.32617 20.1416 6.00617 20.1712 5.58617C20.2992 3.81617 18.9697 2.37617 17.2266 2.37617H5.12339C5.02491 1.93617 4.82795 1.51617 4.52266 1.16617C4.03026 0.636172 3.3409 0.326172 2.63184 0.326172H0.918289C0.51452 0.326172 0.179688 0.666172 0.179688 1.07617C0.179688 1.48617 0.51452 1.82617 0.918289 1.82617H2.63184C2.93713 1.82617 3.22273 1.95617 3.42953 2.17617C3.63634 2.40617 3.73482 2.70617 3.71513 3.01617ZM9.17969 20.3262C9.17969 21.4307 8.28426 22.3262 7.17969 22.3262C6.07512 22.3262 5.17969 21.4307 5.17969 20.3262C5.17969 19.2216 6.07512 18.3262 7.17969 18.3262C8.28426 18.3262 9.17969 19.2216 9.17969 20.3262ZM17.1797 20.3262C17.1797 21.4307 16.2843 22.3262 15.1797 22.3262C14.0751 22.3262 13.1797 21.4307 13.1797 20.3262C13.1797 19.2216 14.0751 18.3262 15.1797 18.3262C16.2843 18.3262 17.1797 19.2216 17.1797 20.3262ZM4.32925 8.32617H19.4005C19.8623 8.32617 20.216 8.70435 20.1767 9.15041L19.8525 13.6789C19.7444 15.1334 18.4475 16.3262 16.9738 16.3262H6.04859C4.36854 16.3262 3.05202 14.9104 3.18956 13.2522L3.54326 9.03405C3.58256 8.63647 3.9166 8.32617 4.32925 8.32617Z" fill="white"/>
</svg>
